<svg width="600" height="600" viewBox="0 0 600 600" fill="none" xmlns="http://www.w3.org/2000/svg">
<rect width="600" height="600" fill="#3DDC84"/>
<path d="M228.341 131H213.432L246.932 37.9091H263.159L296.659 131H281.75L255.432 54.8182H254.705L228.341 131ZM230.841 94.5455H279.205V106.364H230.841V94.5455ZM369.966 37.9091H384.057V99.1364C384.057 105.652 382.527 111.424 379.466 116.455C376.405 121.455 372.102 125.394 366.557 128.273C361.011 131.121 354.511 132.545 347.057 132.545C339.633 132.545 333.148 131.121 327.602 128.273C322.057 125.394 317.754 121.455 314.693 116.455C311.633 111.424 310.102 105.652 310.102 99.1364V37.9091H324.148V98C324.148 102.212 325.072 105.955 326.92 109.227C328.799 112.5 331.451 115.076 334.875 116.955C338.299 118.803 342.36 119.727 347.057 119.727C351.784 119.727 355.86 118.803 359.284 116.955C362.739 115.076 365.375 112.5 367.193 109.227C369.042 105.955 369.966 102.212 369.966 98V37.9091ZM399.886 50V37.9091H471.932V50H442.886V131H428.886V50H399.886ZM564.716 84.4545C564.716 94.3939 562.898 102.939 559.261 110.091C555.625 117.212 550.64 122.697 544.307 126.545C538.004 130.364 530.837 132.273 522.807 132.273C514.746 132.273 507.549 130.364 501.216 126.545C494.913 122.697 489.943 117.197 486.307 110.045C482.67 102.894 480.852 94.3636 480.852 84.4545C480.852 74.5151 482.67 65.9848 486.307 58.8636C489.943 51.7121 494.913 46.2273 501.216 42.4091C507.549 38.5606 514.746 36.6364 522.807 36.6364C530.837 36.6364 538.004 38.5606 544.307 42.4091C550.64 46.2273 555.625 51.7121 559.261 58.8636C562.898 65.9848 564.716 74.5151 564.716 84.4545ZM550.807 84.4545C550.807 76.8788 549.58 70.5 547.125 65.3182C544.701 60.1061 541.367 56.1667 537.125 53.5C532.913 50.803 528.14 49.4545 522.807 49.4545C517.443 49.4545 512.655 50.803 508.443 53.5C504.231 56.1667 500.898 60.1061 498.443 65.3182C496.019 70.5 494.807 76.8788 494.807 84.4545C494.807 92.0303 496.019 98.4242 498.443 103.636C500.898 108.818 504.231 112.758 508.443 115.455C512.655 118.121 517.443 119.455 522.807 119.455C528.14 119.455 532.913 118.121 537.125 115.455C541.367 112.758 544.701 108.818 547.125 103.636C549.58 98.4242 550.807 92.0303 550.807 84.4545ZM324.341 275H309.432L342.932 181.909H359.159L392.659 275H377.75L351.432 198.818H350.705L324.341 275ZM326.841 238.545H375.205V250.364H326.841V238.545ZM436.239 275H406.102V181.909H437.193C446.314 181.909 454.148 183.773 460.693 187.5C467.239 191.197 472.254 196.515 475.739 203.455C479.254 210.364 481.011 218.652 481.011 228.318C481.011 238.015 479.239 246.348 475.693 253.318C472.178 260.288 467.087 265.652 460.42 269.409C453.754 273.136 445.693 275 436.239 275ZM420.148 262.727H435.466C442.557 262.727 448.451 261.394 453.148 258.727C457.845 256.03 461.36 252.136 463.693 247.045C466.027 241.924 467.193 235.682 467.193 228.318C467.193 221.015 466.027 214.818 463.693 209.727C461.39 204.636 457.951 200.773 453.375 198.136C448.799 195.5 443.117 194.182 436.33 194.182H420.148V262.727ZM498.477 275V181.909H532.568C539.174 181.909 544.644 183 548.977 185.182C553.311 187.333 556.553 190.258 558.705 193.955C560.856 197.621 561.932 201.758 561.932 206.364C561.932 210.242 561.22 213.515 559.795 216.182C558.371 218.818 556.462 220.939 554.068 222.545C551.705 224.121 549.098 225.273 546.25 226V226.909C549.341 227.061 552.356 228.061 555.295 229.909C558.265 231.727 560.72 234.318 562.659 237.682C564.598 241.045 565.568 245.136 565.568 249.955C565.568 254.712 564.447 258.985 562.205 262.773C559.992 266.53 556.568 269.515 551.932 271.727C547.295 273.909 541.371 275 534.159 275H498.477ZM512.523 262.955H532.795C539.523 262.955 544.341 261.652 547.25 259.045C550.159 256.439 551.614 253.182 551.614 249.273C551.614 246.333 550.871 243.636 549.386 241.182C547.902 238.727 545.78 236.773 543.023 235.318C540.295 233.864 537.053 233.136 533.295 233.136H512.523V262.955ZM512.523 222.182H531.341C534.492 222.182 537.326 221.576 539.841 220.364C542.386 219.152 544.402 217.455 545.886 215.273C547.402 213.061 548.159 210.455 548.159 207.455C548.159 203.606 546.811 200.379 544.114 197.773C541.417 195.167 537.28 193.864 531.705 193.864H512.523V222.182Z" fill="white"/>
</svg>
